<svg width="100" height="100" viewBox="0 0 168 168" xmlns="http://www.w3.org/2000/svg" fill="none">
  <!-- Circle background -->
  <circle cx="84" cy="84" r="84" fill="#1ED760"/>
  
  <!-- Sound wave path -->
  <path fill="#000" d="M119.6 116.7c-1.6 2.6-5 3.4-7.6 1.8-20.9-12.7-47.3-15.5-78.4-8.3-3 0.7-6-1.1-6.7-4.1-0.7-3 1.1-6 4.1-6.7 34-8 64.2-4.7 88.2 9.9 2.5 1.5 3.3 4.9 1.8 7.4zm10.3-20.3c-2 3.2-6.2 4.2-9.4 2.2-23.9-14.6-60.3-18.9-88.5-10.1-3.5 1-7.1-1-8.1-4.5s1-7.1 4.5-8.1c33.9-10.1 75-5.2 103.6 12 3.1 2 4.1 6.2 2 9.5zm1.1-21.9c-28.6-17.4-76.2-19-103.1-10.2-4.2 1.4-8.7-0.9-10-5.1-1.4-4.2 0.9-8.7 5.1-10 31.9-10.3 86.4-8.4 120.8 12.5 3.7 2.2 4.9 7 2.7 10.7-2.1 3.6-6.8 4.8-10.5 2.1z"/>
</svg>
